<mxfile host="app.diagrams.net" agent="Mozilla/5.0 (Windows NT 10.0; Win64; x64) AppleWebKit/537.36 (KHTML, like Gecko) Chrome/135.0.0.0 Safari/537.36 Edg/135.0.0.0" version="26.1.1">
  <diagram name="Page-1" id="hyp0Lg9hTi3OaI0xD-X6">
    <mxGraphModel dx="1054" dy="604" grid="1" gridSize="10" guides="1" tooltips="1" connect="1" arrows="1" fold="1" page="1" pageScale="1" pageWidth="850" pageHeight="1100" math="0" shadow="0">
      <root>
        <mxCell id="0" />
        <mxCell id="1" parent="0" />
        <mxCell id="5o1TDHDRCsVb4_5RJfjH-1" value="AWS Cloud" style="points=[[0,0],[0.25,0],[0.5,0],[0.75,0],[1,0],[1,0.25],[1,0.5],[1,0.75],[1,1],[0.75,1],[0.5,1],[0.25,1],[0,1],[0,0.75],[0,0.5],[0,0.25]];outlineConnect=0;gradientColor=none;html=1;whiteSpace=wrap;fontSize=12;fontStyle=0;container=1;pointerEvents=0;collapsible=0;recursiveResize=0;shape=mxgraph.aws4.group;grIcon=mxgraph.aws4.group_aws_cloud_alt;strokeColor=#232F3E;fillColor=none;verticalAlign=top;align=left;spacingLeft=30;fontColor=#232F3E;dashed=0;" vertex="1" parent="1">
          <mxGeometry x="40" y="100" width="900" height="510" as="geometry" />
        </mxCell>
        <mxCell id="5o1TDHDRCsVb4_5RJfjH-5" value="Region" style="points=[[0,0],[0.25,0],[0.5,0],[0.75,0],[1,0],[1,0.25],[1,0.5],[1,0.75],[1,1],[0.75,1],[0.5,1],[0.25,1],[0,1],[0,0.75],[0,0.5],[0,0.25]];outlineConnect=0;gradientColor=none;html=1;whiteSpace=wrap;fontSize=12;fontStyle=0;container=1;pointerEvents=0;collapsible=0;recursiveResize=0;shape=mxgraph.aws4.group;grIcon=mxgraph.aws4.group_region;strokeColor=#FF33FF;fillColor=none;verticalAlign=top;align=left;spacingLeft=30;fontColor=#147EBA;dashed=1;" vertex="1" parent="1">
          <mxGeometry x="50" y="130" width="880" height="460" as="geometry" />
        </mxCell>
        <mxCell id="5o1TDHDRCsVb4_5RJfjH-9" value="&lt;b&gt;&lt;font style=&quot;color: rgb(255, 118, 223); font-size: 13px;&quot;&gt;us-east-1&lt;/font&gt;&lt;/b&gt;" style="text;html=1;align=center;verticalAlign=middle;resizable=0;points=[];autosize=1;strokeColor=none;fillColor=none;" vertex="1" parent="5o1TDHDRCsVb4_5RJfjH-5">
          <mxGeometry x="80" width="80" height="30" as="geometry" />
        </mxCell>
        <mxCell id="5o1TDHDRCsVb4_5RJfjH-2" value="VPC" style="points=[[0,0],[0.25,0],[0.5,0],[0.75,0],[1,0],[1,0.25],[1,0.5],[1,0.75],[1,1],[0.75,1],[0.5,1],[0.25,1],[0,1],[0,0.75],[0,0.5],[0,0.25]];outlineConnect=0;gradientColor=none;html=1;whiteSpace=wrap;fontSize=12;fontStyle=0;container=1;pointerEvents=0;collapsible=0;recursiveResize=0;shape=mxgraph.aws4.group;grIcon=mxgraph.aws4.group_vpc2;strokeColor=#8C4FFF;fillColor=none;verticalAlign=top;align=left;spacingLeft=30;fontColor=#AAB7B8;dashed=0;" vertex="1" parent="5o1TDHDRCsVb4_5RJfjH-5">
          <mxGeometry x="30" y="40" width="800" height="410" as="geometry" />
        </mxCell>
        <mxCell id="5o1TDHDRCsVb4_5RJfjH-21" value="Public subnet" style="points=[[0,0],[0.25,0],[0.5,0],[0.75,0],[1,0],[1,0.25],[1,0.5],[1,0.75],[1,1],[0.75,1],[0.5,1],[0.25,1],[0,1],[0,0.75],[0,0.5],[0,0.25]];outlineConnect=0;gradientColor=none;html=1;whiteSpace=wrap;fontSize=12;fontStyle=0;container=1;pointerEvents=0;collapsible=0;recursiveResize=0;shape=mxgraph.aws4.group;grIcon=mxgraph.aws4.group_security_group;grStroke=0;strokeColor=#7AA116;fillColor=#F2F6E8;verticalAlign=top;align=left;spacingLeft=30;fontColor=#248814;dashed=0;" vertex="1" parent="5o1TDHDRCsVb4_5RJfjH-2">
          <mxGeometry x="145" y="210" width="130" height="130" as="geometry" />
        </mxCell>
        <mxCell id="5o1TDHDRCsVb4_5RJfjH-22" value="&lt;b&gt;&lt;font style=&quot;color: rgb(255, 96, 240);&quot;&gt;us-east-1a&lt;/font&gt;&lt;/b&gt;" style="text;html=1;align=center;verticalAlign=middle;resizable=0;points=[];autosize=1;strokeColor=none;fillColor=none;" vertex="1" parent="5o1TDHDRCsVb4_5RJfjH-2">
          <mxGeometry x="165" y="160" width="80" height="30" as="geometry" />
        </mxCell>
        <mxCell id="5o1TDHDRCsVb4_5RJfjH-23" value="EC2 worker nodes" style="points=[[0,0],[0.25,0],[0.5,0],[0.75,0],[1,0],[1,0.25],[1,0.5],[1,0.75],[1,1],[0.75,1],[0.5,1],[0.25,1],[0,1],[0,0.75],[0,0.5],[0,0.25]];outlineConnect=0;gradientColor=none;html=1;whiteSpace=wrap;fontSize=12;fontStyle=0;container=1;pointerEvents=0;collapsible=0;recursiveResize=0;shape=mxgraph.aws4.group;grIcon=mxgraph.aws4.group_ec2_instance_contents;strokeColor=#D86613;fillColor=none;verticalAlign=top;align=left;spacingLeft=30;fontColor=#D86613;dashed=0;" vertex="1" parent="5o1TDHDRCsVb4_5RJfjH-2">
          <mxGeometry x="160" y="260" width="90" height="70" as="geometry" />
        </mxCell>
        <mxCell id="5o1TDHDRCsVb4_5RJfjH-24" value="" style="rounded=1;arcSize=10;dashed=1;fillColor=none;gradientColor=none;dashPattern=1 1;strokeWidth=2;" vertex="1" parent="5o1TDHDRCsVb4_5RJfjH-2">
          <mxGeometry x="120" y="187.63" width="170" height="174.75" as="geometry" />
        </mxCell>
        <mxCell id="5o1TDHDRCsVb4_5RJfjH-29" value="Public subnet" style="points=[[0,0],[0.25,0],[0.5,0],[0.75,0],[1,0],[1,0.25],[1,0.5],[1,0.75],[1,1],[0.75,1],[0.5,1],[0.25,1],[0,1],[0,0.75],[0,0.5],[0,0.25]];outlineConnect=0;gradientColor=none;html=1;whiteSpace=wrap;fontSize=12;fontStyle=0;container=1;pointerEvents=0;collapsible=0;recursiveResize=0;shape=mxgraph.aws4.group;grIcon=mxgraph.aws4.group_security_group;grStroke=0;strokeColor=#7AA116;fillColor=#F2F6E8;verticalAlign=top;align=left;spacingLeft=30;fontColor=#248814;dashed=0;" vertex="1" parent="5o1TDHDRCsVb4_5RJfjH-2">
          <mxGeometry x="580" y="210" width="130" height="130" as="geometry" />
        </mxCell>
        <mxCell id="5o1TDHDRCsVb4_5RJfjH-30" value="EC2 worker nodes" style="points=[[0,0],[0.25,0],[0.5,0],[0.75,0],[1,0],[1,0.25],[1,0.5],[1,0.75],[1,1],[0.75,1],[0.5,1],[0.25,1],[0,1],[0,0.75],[0,0.5],[0,0.25]];outlineConnect=0;gradientColor=none;html=1;whiteSpace=wrap;fontSize=12;fontStyle=0;container=1;pointerEvents=0;collapsible=0;recursiveResize=0;shape=mxgraph.aws4.group;grIcon=mxgraph.aws4.group_ec2_instance_contents;strokeColor=#D86613;fillColor=none;verticalAlign=top;align=left;spacingLeft=30;fontColor=#D86613;dashed=0;" vertex="1" parent="5o1TDHDRCsVb4_5RJfjH-29">
          <mxGeometry x="10" y="50" width="90" height="70" as="geometry" />
        </mxCell>
        <mxCell id="5o1TDHDRCsVb4_5RJfjH-31" value="&lt;b&gt;&lt;font style=&quot;color: rgb(255, 88, 221);&quot;&gt;us-east-1b&lt;/font&gt;&lt;/b&gt;" style="text;html=1;align=center;verticalAlign=middle;resizable=0;points=[];autosize=1;strokeColor=none;fillColor=none;" vertex="1" parent="5o1TDHDRCsVb4_5RJfjH-2">
          <mxGeometry x="605" y="160" width="80" height="30" as="geometry" />
        </mxCell>
        <mxCell id="5o1TDHDRCsVb4_5RJfjH-32" value="" style="rounded=1;arcSize=10;dashed=1;fillColor=none;gradientColor=none;dashPattern=1 1;strokeWidth=2;" vertex="1" parent="5o1TDHDRCsVb4_5RJfjH-2">
          <mxGeometry x="560" y="187.63" width="170" height="174.75" as="geometry" />
        </mxCell>
        <mxCell id="5o1TDHDRCsVb4_5RJfjH-34" value="&lt;h2&gt;&lt;font style=&quot;font-size: 13px; color: rgb(16, 47, 255);&quot;&gt;&lt;b style=&quot;&quot;&gt;EKS node group&lt;/b&gt;&lt;/font&gt;&lt;/h2&gt;" style="text;html=1;align=center;verticalAlign=middle;resizable=0;points=[];autosize=1;strokeColor=none;fillColor=none;rotation=0;" vertex="1" parent="5o1TDHDRCsVb4_5RJfjH-2">
          <mxGeometry x="345" y="330" width="140" height="60" as="geometry" />
        </mxCell>
        <mxCell id="5o1TDHDRCsVb4_5RJfjH-11" value="&lt;b&gt;10.0.0.0/16&lt;/b&gt;" style="text;html=1;align=center;verticalAlign=middle;resizable=0;points=[];autosize=1;strokeColor=none;fillColor=none;" vertex="1" parent="1">
          <mxGeometry x="140" y="168" width="80" height="30" as="geometry" />
        </mxCell>
        <mxCell id="5o1TDHDRCsVb4_5RJfjH-33" value="" style="rounded=1;arcSize=10;dashed=1;strokeColor=#160EFF;fillColor=none;gradientColor=none;dashPattern=8 4;strokeWidth=2;" vertex="1" parent="1">
          <mxGeometry x="120" y="370" width="730" height="150" as="geometry" />
        </mxCell>
        <mxCell id="5o1TDHDRCsVb4_5RJfjH-36" value="" style="rounded=1;arcSize=10;dashed=1;strokeColor=#FF0000;fillColor=none;gradientColor=none;dashPattern=8 4;strokeWidth=2;" vertex="1" parent="1">
          <mxGeometry x="100" y="320" width="770" height="230" as="geometry" />
        </mxCell>
      </root>
    </mxGraphModel>
  </diagram>
</mxfile>
